<svg xmlns="http://www.w3.org/2000/svg" width="30.132" height="33.088" viewBox="0 0 30.132 33.088">
  <g id="_3586371_calendar_date_schedule_icon" data-name="3586371_calendar_date_schedule_icon" transform="translate(-9.753 -5.474)">
    <path id="Path_158" data-name="Path 158" d="M25.227,42.441H21.584a.559.559,0,0,0-.56.56v3.643a.56.56,0,0,0,.56.56h3.643a.56.56,0,0,0,.56-.56V43A.56.56,0,0,0,25.227,42.441Zm-.56,3.643H22.144V43.561h2.523Z" transform="translate(-7.065 -23.172)" fill="#194e78"/>
    <path id="Path_159" data-name="Path 159" d="M47.995,42.441H44.352a.559.559,0,0,0-.56.56v3.643a.56.56,0,0,0,.56.56h3.643a.56.56,0,0,0,.56-.56V43A.56.56,0,0,0,47.995,42.441Zm-.56,3.643H44.912V43.561h2.523Z" transform="translate(-21.337 -23.172)" fill="#194e78"/>
    <path id="Path_160" data-name="Path 160" d="M70.061,42.441H66.418a.56.56,0,0,0-.56.56v3.643a.56.56,0,0,0,.56.56h3.643a.56.56,0,0,0,.56-.56V43A.56.56,0,0,0,70.061,42.441Zm-.56,3.643H66.978V43.561H69.5Z" transform="translate(-35.168 -23.172)" fill="#194e78"/>
    <path id="Path_161" data-name="Path 161" d="M25.227,64.677H21.584a.56.56,0,0,0-.56.56V68.88a.56.56,0,0,0,.56.56h3.643a.56.56,0,0,0,.56-.56V65.237A.56.56,0,0,0,25.227,64.677Zm-.56,3.643H22.144V65.8h2.523Z" transform="translate(-7.065 -37.11)" fill="#194e78"/>
    <path id="Path_162" data-name="Path 162" d="M47.995,64.677H44.352a.56.56,0,0,0-.56.56V68.88a.56.56,0,0,0,.56.56h3.643a.56.56,0,0,0,.56-.56V65.237A.56.56,0,0,0,47.995,64.677Zm-.56,3.643H44.912V65.8h2.523Z" transform="translate(-21.337 -37.11)" fill="#194e78"/>
    <path id="Path_163" data-name="Path 163" d="M70.061,64.677H66.418a.56.56,0,0,0-.56.56V68.88a.56.56,0,0,0,.56.56h3.643a.56.56,0,0,0,.56-.56V65.237A.56.56,0,0,0,70.061,64.677ZM69.5,68.32H66.978V65.8H69.5Z" transform="translate(-35.168 -37.11)" fill="#194e78"/>
    <path id="Path_164" data-name="Path 164" d="M39.326,8.43H35.615V7.685a2.211,2.211,0,1,0-4.423,0V8.43H27.026V7.685a2.211,2.211,0,1,0-4.423,0V8.43H18.437V7.685a2.211,2.211,0,1,0-4.423,0V8.43h-3.7a.559.559,0,0,0-.56.56V38a.56.56,0,0,0,.56.56H39.326a.56.56,0,0,0,.56-.56V8.989A.56.56,0,0,0,39.326,8.43Zm-7.014-.744a1.092,1.092,0,0,1,2.184,0v3.089a1.092,1.092,0,0,1-2.184,0Zm-7.5-1.092a1.093,1.093,0,0,1,1.092,1.092v3.089a1.092,1.092,0,0,1-2.184,0V9.042c0-.018.005-.034.005-.053s0-.035-.005-.053V7.685A1.093,1.093,0,0,1,24.815,6.594ZM15.134,7.685a1.092,1.092,0,0,1,2.184,0v3.089a1.092,1.092,0,0,1-2.184,0ZM38.766,37.442H10.873V9.549h3.142v1.226a2.211,2.211,0,0,0,4.423,0V9.549H22.6v1.225a2.211,2.211,0,1,0,4.423,0V9.549h4.166v1.225a2.211,2.211,0,0,0,4.423,0V9.548h3.151Z" transform="translate(0 0)" fill="#194e78"/>
  </g>
</svg>
