<svg xmlns="http://www.w3.org/2000/svg" width="32.38" height="32.222" viewBox="0 0 32.38 32.222">
  <g id="edit2" transform="translate(-0.005 -0.011)">
    <path id="Path_145" data-name="Path 145" d="M131.736,5.017a4.17,4.17,0,0,1-.265.9,5.89,5.89,0,0,1-.893,1.323q-7.065,7.107-14.167,14.176a1.541,1.541,0,0,1-.639.372c-2.165.616-4.334,1.216-6.5,1.815-.83.229-1.34-.275-1.113-1.1q.9-3.256,1.811-6.5a1.54,1.54,0,0,1,.37-.642q7.085-7.108,14.189-14.2a3.614,3.614,0,0,1,5.278,0c.27.266.536.537.8.8a3.611,3.611,0,0,1,1.078,2.061.414.414,0,0,0,.051.111Zm-15.971,14.7L127.452,8.03,123.723,4.3,112.037,15.988ZM124.884,3l3.769,3.769a11.534,11.534,0,0,0,1.019-.938,1.922,1.922,0,0,0,.013-2.47,10.6,10.6,0,0,0-1.318-1.309,1.747,1.747,0,0,0-2.065-.2A10.835,10.835,0,0,0,124.884,3ZM110.048,21.71l4.118-1.144-2.978-2.977C110.818,18.926,110.441,20.288,110.048,21.71Z" transform="translate(-99.35 0)" fill="#194e78"/>
    <path id="Path_146" data-name="Path 146" d="M15.34,67.9q-5.581,0-11.161,0A3.982,3.982,0,0,1,.234,65.159,4.425,4.425,0,0,1,.016,63.8Q0,53.362.009,42.927a4,4,0,0,1,4.072-4.095c2.34-.028,4.68-.009,7.019,0a.823.823,0,0,1,.905.806.836.836,0,0,1-.914.8c-2.308,0-4.617,0-6.925,0A2.4,2.4,0,0,0,1.7,42.293a3.122,3.122,0,0,0-.078.782q-.006,10.293,0,20.584a2.406,2.406,0,0,0,1.81,2.533,3.011,3.011,0,0,0,.78.095q11.146.007,22.291,0a2.449,2.449,0,0,0,2.587-2.606q0-3.43,0-6.862a.824.824,0,0,1,.664-.9.8.8,0,0,1,.935.849c.006,1.264,0,2.53,0,3.794,0,1.17.019,2.34-.015,3.509a3.946,3.946,0,0,1-3.8,3.8c-2.328.046-4.658.019-6.987.021Q17.616,67.9,15.34,67.9Z" transform="translate(0 -35.667)" fill="#194e78"/>
  </g>
</svg>
