<svg xmlns="http://www.w3.org/2000/svg" width="29.501" height="29.357" viewBox="0 0 29.501 29.357">
  <g id="edit" transform="translate(-0.005 -0.011)">
    <path id="Path_145" data-name="Path 145" d="M129.634,4.572a3.8,3.8,0,0,1-.241.819,5.366,5.366,0,0,1-.814,1.205q-6.436,6.475-12.908,12.915a1.4,1.4,0,0,1-.582.339c-1.972.562-3.949,1.108-5.926,1.654-.756.209-1.221-.251-1.014-1q.816-2.966,1.65-5.926a1.4,1.4,0,0,1,.337-.584q6.455-6.476,12.927-12.936a3.293,3.293,0,0,1,4.808,0c.246.242.489.489.733.733a3.29,3.29,0,0,1,.982,1.878.378.378,0,0,0,.046.1ZM115.083,17.964,125.731,7.317l-3.4-3.4L111.687,14.567Zm8.309-15.228,3.434,3.434a10.507,10.507,0,0,0,.929-.854,1.751,1.751,0,0,0,.012-2.25,9.657,9.657,0,0,0-1.2-1.193,1.592,1.592,0,0,0-1.882-.181A9.871,9.871,0,0,0,123.392,2.737ZM109.874,19.78l3.752-1.042-2.713-2.712C110.576,17.244,110.233,18.485,109.874,19.78Z" transform="translate(-100.128)" fill="#194e78"/>
    <path id="Path_146" data-name="Path 146" d="M13.976,65.31q-5.084,0-10.169,0A3.628,3.628,0,0,1,.214,62.817a4.031,4.031,0,0,1-.2-1.242Q0,52.068.009,42.562a3.641,3.641,0,0,1,3.71-3.731c2.131-.025,4.264-.008,6.4,0a.75.75,0,0,1,.825.734.762.762,0,0,1-.833.727c-2.1,0-4.206,0-6.309,0a2.187,2.187,0,0,0-2.246,1.694,2.845,2.845,0,0,0-.071.713q-.006,9.377,0,18.754a2.192,2.192,0,0,0,1.649,2.308,2.743,2.743,0,0,0,.71.086q10.154.007,20.309,0A2.231,2.231,0,0,0,26.5,61.472q0-3.125,0-6.251a.751.751,0,0,1,.605-.821.73.73,0,0,1,.852.774c.006,1.152,0,2.3,0,3.457,0,1.066.017,2.132-.013,3.2a3.6,3.6,0,0,1-3.46,3.463c-2.121.042-4.244.017-6.366.019Q16.05,65.313,13.976,65.31Z" transform="translate(0 -35.946)" fill="#194e78"/>
  </g>
</svg>
