<svg xmlns="http://www.w3.org/2000/svg" width="33.269" height="34.083" viewBox="0 0 33.269 34.083">
  <g id="filter" transform="translate(0.012)">
    <path id="Path_11496" data-name="Path 11496" d="M32.055,0a3.832,3.832,0,0,1,.817.487,1.335,1.335,0,0,1,.2,1.625,3.425,3.425,0,0,1-.269.417q-5.4,7.6-10.793,15.19a4.174,4.174,0,0,0-.808,2.546c.017,3.259.009,6.526.009,9.785a1.423,1.423,0,0,1-1.095,1.608c-1.99.756-3.971,1.512-5.961,2.277a1.478,1.478,0,0,1-1.668-.243,1.6,1.6,0,0,1-.443-1.277V21.395c0-.391-.017-.773,0-1.164a3.8,3.8,0,0,0-.782-2.477Q5.8,10.115.4,2.477A1.444,1.444,0,0,1,.337.53,3.572,3.572,0,0,1,1.154,0Zm-18.3,32.205c.148-.052.252-.078.356-.113,1.668-.634,3.328-1.277,5-1.9a.462.462,0,0,0,.365-.513c-.009-3.163,0-6.326-.009-9.489a5.62,5.62,0,0,1,1.095-3.415Q25.786,9.433,31,2.077c.07-.1.13-.2.217-.322H2.023c.1.139.165.252.243.356Q7.454,9.424,12.651,16.728a5.774,5.774,0,0,1,1.121,3.511c-.017,3.85-.009,7.7-.009,11.549C13.754,31.91,13.754,32.04,13.754,32.205Z" fill="#194e78"/>
  </g>
</svg>
