<svg xmlns="http://www.w3.org/2000/svg" width="330.578" height="330.578" viewBox="0 0 330.578 330.578">
  <g id="Group_2805" data-name="Group 2805" transform="translate(-1414.711 -289.711)">
    <g id="Ellipse_30" data-name="Ellipse 30" transform="translate(1459 334)" fill="none" stroke="#f5f5f5" stroke-width="50">
      <circle cx="121" cy="121" r="121" stroke="none"/>
      <circle cx="121" cy="121" r="96" fill="none"/>
    </g>
    <g id="Ellipse_31" data-name="Ellipse 31" transform="translate(1459 334)" fill="none" stroke="#194e78" stroke-width="50" stroke-dasharray="600 150">
      <circle cx="121" cy="121" r="121" stroke="none"/>
      <circle cx="121" cy="121" r="96" fill="none"/>
    </g>
    <g id="Ellipse_32" data-name="Ellipse 32" transform="translate(1745.289 499.289) rotate(150)" fill="none" stroke="#7998b1" stroke-width="50" stroke-dasharray="300 600">
      <circle cx="121" cy="121" r="121" stroke="none"/>
      <circle cx="121" cy="121" r="96" fill="none"/>
    </g>
    <g id="Ellipse_33" data-name="Ellipse 33" transform="translate(1624.289 289.711) rotate(60)" fill="none" stroke="#396a8f" stroke-width="50" stroke-dasharray="300 700">
      <circle cx="121" cy="121" r="121" stroke="none"/>
      <circle cx="121" cy="121" r="96" fill="none"/>
    </g>
    <text id="Client_percentage" data-name="Client percentage" transform="translate(1509 608.734)" fill="#0d283d" font-size="18" font-family="Roboto-Bold, Roboto" font-weight="700"><tspan x="0" y="0">Client percentage</tspan></text>
    <text id="_45_" data-name="45%" transform="translate(1632.009 528.51) rotate(-3)" fill="#fff" font-size="18" font-family="Roboto-Bold, Roboto" font-weight="700"><tspan x="0" y="0">45%</tspan></text>
    <text id="_25_" data-name="25%" transform="matrix(0.545, 0.839, -0.839, 0.545, 1482.709, 490.391)" fill="#fff" font-size="18" font-family="Roboto-Bold, Roboto" font-weight="700"><tspan x="0" y="0">25%</tspan></text>
    <text id="_15_" data-name="15%" transform="translate(1607.727 370.505) rotate(30)" fill="#fff" font-size="18" font-family="Roboto-Bold, Roboto" font-weight="700"><tspan x="0" y="0">15%</tspan></text>
    <text id="_15_2" data-name="15%" transform="matrix(0.755, -0.656, 0.656, 0.755, 1516.637, 393.062)" fill="#0d283d" font-size="18" font-family="Roboto-Bold, Roboto" font-weight="700"><tspan x="0" y="0">15%</tspan></text>
  </g>
</svg>
