<svg xmlns="http://www.w3.org/2000/svg" width="23.193" height="23.2" viewBox="0 0 23.193 23.2">
  <g id="reminders" transform="translate(0 -0.025)">
    <path id="Path_11497" data-name="Path 11497" d="M0,3.242c.03-.145.067-.29.1-.436A3.61,3.61,0,0,1,3.557.03Q11.6.02,19.632.03a3.593,3.593,0,0,1,3.551,3.515c.018,2.741.006,5.481.006,8.216a.906.906,0,1,1-1.809-.018V3.708A1.8,1.8,0,0,0,19.82,1.863a2.083,2.083,0,0,0-.339-.018H3.721A1.8,1.8,0,0,0,1.815,3.738V19.492A1.813,1.813,0,0,0,3.721,21.4h6.7a.909.909,0,0,1,.369,1.767.483.483,0,0,0-.1.048H3.225c-.042-.012-.085-.03-.127-.042A3.584,3.584,0,0,1,.121,20.5c-.048-.163-.079-.333-.115-.5Q0,11.618,0,3.242Z" fill="#fff"/>
    <path id="Path_11498" data-name="Path 11498" d="M211.185,199.158a.971.971,0,0,1-.732-.907c-.623,0-1.234-.018-1.845.006a2.584,2.584,0,0,1-2.583-2.226,2.461,2.461,0,0,1-.042-.514.823.823,0,0,1,.514-.786,1.189,1.189,0,0,0,.793-1.258,5.137,5.137,0,0,1,.2-1.966,4.06,4.06,0,0,1,2.789-2.65c.145-.042.2-.1.188-.242a2.753,2.753,0,0,1,0-.387.9.9,0,1,1,1.809.006c.006.188,0,.375,0,.569.175.061.339.109.5.169a4.081,4.081,0,0,1,2.626,3.775v.883a1,1,0,0,0,.611,1,1.084,1.084,0,0,1,.659,1.379,2.612,2.612,0,0,1-2.19,2.226c-.514.054-1.041.018-1.561.024h-.647a.962.962,0,0,1-.732.907A3.455,3.455,0,0,0,211.185,199.158ZM214.766,196c-.061-.048-.121-.1-.182-.157a2.686,2.686,0,0,1-.956-1.767c-.042-.454-.03-.92-.042-1.379a2.277,2.277,0,0,0-2.081-2.184,2.241,2.241,0,0,0-2.359,1.839,10.077,10.077,0,0,0-.048,1.355,2.837,2.837,0,0,1-1.022,2.16l-.163.145a.662.662,0,0,0,.647.43h5.548A.61.61,0,0,0,214.766,196Z" transform="translate(-193.519 -175.945)" fill="#fff"/>
    <path id="Path_11499" data-name="Path 11499" d="M140.053,84.506c1.434,0,2.868-.006,4.3,0a.894.894,0,0,1,.914,1.168.875.875,0,0,1-.883.641c-.508.006-1.01,0-1.519,0h-7.084a.909.909,0,1,1-.048-1.815C137.167,84.506,138.613,84.506,140.053,84.506Z" transform="translate(-126.646 -79.364)" fill="#fff"/>
    <path id="Path_11500" data-name="Path 11500" d="M138.138,174.458c.8,0,1.6-.006,2.4,0a.905.905,0,1,1-.048,1.809h-4.253c-.175,0-.345.006-.52,0a.9.9,0,1,1,0-1.809C136.523,174.452,137.334,174.458,138.138,174.458Z" transform="translate(-126.644 -163.878)" fill="#fff"/>
    <path id="Path_11501" data-name="Path 11501" d="M136.79,271.338c-.345,0-.7.006-1.041,0a.906.906,0,1,1,0-1.809c.7-.006,1.385-.006,2.081,0a.906.906,0,1,1,0,1.809Z" transform="translate(-126.645 -253.195)" fill="#fff"/>
    <path id="Path_11502" data-name="Path 11502" d="M76.709,85.588A.9.9,0,1,1,75.8,84.7.9.9,0,0,1,76.709,85.588Z" transform="translate(-70.369 -79.551)" fill="#fff"/>
    <path id="Path_11503" data-name="Path 11503" d="M75.806,174.5a.9.9,0,1,1-.006,1.809.889.889,0,0,1-.9-.9A.9.9,0,0,1,75.806,174.5Z" transform="translate(-70.368 -163.919)" fill="#fff"/>
    <path id="Path_11504" data-name="Path 11504" d="M76.709,270.479a.9.9,0,1,1-.92-.883A.9.9,0,0,1,76.709,270.479Z" transform="translate(-70.369 -253.262)" fill="#fff"/>
  </g>
</svg>
