<svg id="search" xmlns="http://www.w3.org/2000/svg" width="33.412" height="33.407" viewBox="0 0 33.412 33.407">
  <path id="Path_144" data-name="Path 144" d="M35.345,41.451a5.672,5.672,0,0,1-.76-.537q-4.114-4.026-8.212-8.069c-.069-.068-.141-.132-.225-.21-.094.064-.185.12-.269.184a13.741,13.741,0,0,1-6.087,2.665,13.852,13.852,0,0,1-9.5-1.634,13.736,13.736,0,0,1-6.363-7.715,12.491,12.491,0,0,1-.625-3.088A1.7,1.7,0,0,0,3.25,22.8V20.971c.084-.556.151-1.115.255-1.667a13.1,13.1,0,0,1,2.388-5.47,13.67,13.67,0,0,1,7.914-5.328,13.782,13.782,0,0,1,12.441,2.739,13.206,13.206,0,0,1,5.031,9.249,13.253,13.253,0,0,1-2.313,9.049c-.378.553-.807,1.072-1.27,1.682a1.76,1.76,0,0,1,.28.191q4.117,4.043,8.228,8.093c.48.473.6.98.275,1.42a3.155,3.155,0,0,1-.676.524C35.65,41.451,35.5,41.451,35.345,41.451ZM5.411,21.467a12.141,12.141,0,0,0,.956,5,11.625,11.625,0,0,0,9.577,7.017,11.28,11.28,0,0,0,8.527-2.3,11.175,11.175,0,0,0,4.585-10.85,11.032,11.032,0,0,0-6.107-8.721,11.5,11.5,0,0,0-11.841.318A11.228,11.228,0,0,0,5.411,21.467Z" transform="translate(-3.25 -8.046)" fill="#194e78"/>
</svg>
