<svg xmlns="http://www.w3.org/2000/svg" width="114.254" height="109.482" viewBox="0 0 114.254 109.482">
  <g id="success" transform="translate(0.1 -0.019)">
    <path id="Path_11506" data-name="Path 11506" d="M-.07,53.382c.954-3.278,3.248-5.6,5.751-7.718C6.754,44.741,7.8,43.787,8.9,42.893a6.235,6.235,0,0,0,2.294-7.032A65.036,65.036,0,0,1,9.525,27.7c-.656-5.811,2.056-9.178,7.867-10.012,2.712-.387,5.453-.626,8.195-.864a5.588,5.588,0,0,0,5.036-3.606C31.665,10.8,32.678,8.357,33.84,6a15.6,15.6,0,0,1,2.116-3.248A6.932,6.932,0,0,1,44,.49a44.827,44.827,0,0,1,5.9,2.861C51.511,4.185,53.06,5.169,54.669,6a4.816,4.816,0,0,0,4.708,0c1.758-.954,3.486-2,5.245-2.95A40.814,40.814,0,0,1,68.853.848C73.085-.88,76.6.192,79.074,4.036a38.488,38.488,0,0,1,2.5,4.947c.656,1.4,1.252,2.861,1.877,4.291a5.574,5.574,0,0,0,4.976,3.546c3.1.328,6.228.536,9.267,1.132,5.066,1.013,7.36,4.261,6.854,9.416-.149,1.579-.536,3.129-.834,4.708-.328,1.758-.715,3.486-1.073,5.245a4.6,4.6,0,0,0,1.46,4.559c1.43,1.341,2.95,2.592,4.38,3.963a37.823,37.823,0,0,1,3.725,3.844c2.563,3.278,2.622,6.883,0,10.131a55.709,55.709,0,0,1-4.976,4.947c-1.1,1.043-2.265,2.026-3.337,3.1a4.5,4.5,0,0,0-1.281,4.2c.566,2.92,1.252,5.811,1.758,8.731a15.862,15.862,0,0,1,.149,3.755,6.739,6.739,0,0,1-4.708,6.287,42.089,42.089,0,0,1-6.943,1.371c-1.818.3-3.695.417-5.513.656a4.357,4.357,0,0,0-3.516,2.622c-.8,1.669-1.49,3.4-2.294,5.066a40.563,40.563,0,0,1-2.861,5.394,7.362,7.362,0,0,1-9.208,2.92,39.137,39.137,0,0,1-4.887-2.414c-1.579-.834-3.069-1.788-4.619-2.682a5.539,5.539,0,0,0-5.93,0c-1.877,1.073-3.665,2.265-5.6,3.218a30.748,30.748,0,0,1-5.3,2.235,6.236,6.236,0,0,1-6.615-1.907,26.832,26.832,0,0,1-3.337-5.1,29.764,29.764,0,0,1-2-4.708c-1.162-3.546-3.695-4.947-7.271-5.066a58.8,58.8,0,0,1-6.436-.626c-6.258-.894-9.088-4.8-7.926-11,.536-2.89,1.162-5.751,1.758-8.612a4.671,4.671,0,0,0-1.43-4.559C8.6,66.464,7.29,65.331,6.009,64.139,5,63.216,3.953,62.292,3,61.338A11.674,11.674,0,0,1-.1,55.915C-.07,55.021-.07,54.187-.07,53.382ZM99.4,27.1c.03-2.771-.566-3.665-2.652-3.993-2.712-.447-5.453-.715-8.195-.954-4.708-.387-8.135-2.533-10.012-6.973-.685-1.639-1.371-3.278-2.116-4.917a29.594,29.594,0,0,0-1.55-3.069c-1.192-2-2.145-2.294-4.261-1.371-1.013.447-2,1.013-2.95,1.55-1.877,1.043-3.725,2.175-5.6,3.188a10.314,10.314,0,0,1-10.131-.03c-1.7-.894-3.337-1.937-5.036-2.861-1.162-.656-2.324-1.341-3.546-1.877-2-.864-2.98-.536-4.112,1.311a33.618,33.618,0,0,0-1.639,3.278c-1.073,2.235-2,4.559-3.159,6.734a8.687,8.687,0,0,1-6.287,4.529c-1.7.328-3.457.477-5.185.715-2.116.3-4.291.507-6.377.954-1.46.328-1.907,1.132-1.907,2.622a6.8,6.8,0,0,0,.119,1.55c.507,2.443.983,4.857,1.55,7.3,1.1,4.678.03,8.671-3.725,11.83C11.253,47.78,9.912,48.942,8.6,50.134a20.584,20.584,0,0,0-2.265,2.294c-1.49,1.758-1.49,2.861.03,4.619.745.864,1.609,1.639,2.443,2.443,1.55,1.43,3.188,2.8,4.708,4.261a9.963,9.963,0,0,1,3.01,9.655c-.536,2.92-1.252,5.811-1.758,8.731-.507,2.771.209,3.844,2.98,4.291,2.592.447,5.215.656,7.867.894,4.649.387,8.075,2.533,9.923,6.913.685,1.639,1.371,3.278,2.116,4.917a31.692,31.692,0,0,0,1.579,3.188c1.162,1.937,2.116,2.235,4.172,1.341a35.627,35.627,0,0,0,3.337-1.758c1.788-.983,3.516-2.086,5.334-3.01a10.068,10.068,0,0,1,9.923,0c1.967,1.043,3.844,2.235,5.811,3.308a35.117,35.117,0,0,0,3.695,1.788,2.171,2.171,0,0,0,2.831-.894c.775-1.252,1.46-2.563,2.116-3.9,1.073-2.235,2-4.559,3.159-6.734a8.782,8.782,0,0,1,6.377-4.589c1.669-.328,3.367-.477,5.066-.685,2.116-.3,4.291-.477,6.377-.954,1.52-.328,1.967-1.132,2-2.682a6.8,6.8,0,0,0-.119-1.55c-.507-2.443-1.013-4.857-1.55-7.3-1.073-4.649-.03-8.612,3.695-11.741,1.341-1.132,2.652-2.294,3.933-3.457.656-.6,1.341-1.192,1.937-1.847,2.056-2.235,2.056-3.4.03-5.662-.6-.656-1.281-1.252-1.937-1.847-1.639-1.46-3.308-2.89-4.887-4.41A9.509,9.509,0,0,1,97.4,37.53q.223-1.922.626-3.844C98.5,31.153,99.039,28.739,99.4,27.1Z" transform="translate(0 0)" fill="#194e78"/>
    <path id="Path_11507" data-name="Path 11507" d="M123.511,139c2.533-2.533,4.887-4.917,7.241-7.271,3.218-3.248,6.436-6.526,9.714-9.684a8.591,8.591,0,0,1,14.3,3.308,8.365,8.365,0,0,1-2.294,9.088c-5.632,5.632-11.234,11.264-16.866,16.9-1.877,1.907-3.784,3.784-5.691,5.662a8.579,8.579,0,0,1-12.545.06c-4.44-4.351-8.82-8.761-13.171-13.171a8.65,8.65,0,1,1,12.188-12.277c2.145,2.116,4.261,4.261,6.377,6.377C123.034,138.288,123.213,138.616,123.511,139Zm-13.171-4.947a1.046,1.046,0,0,0-.149.238c-.328.06-.656.089-.983.179a3.347,3.347,0,0,0-1.222,5.721c4.2,4.231,8.4,8.4,12.6,12.6,2.175,2.175,3.9,2.175,6.109,0l21.663-21.663a11.353,11.353,0,0,0,.983-1.073,3.338,3.338,0,0,0-1.579-5.125,3.4,3.4,0,0,0-3.814,1.043q-8.94,8.984-17.879,17.909c-1.758,1.758-3.039,1.758-4.827-.03-2.8-2.771-5.542-5.6-8.373-8.314A16.6,16.6,0,0,0,110.34,134.057Z" transform="translate(-71.345 -83.863)" fill="#194e78"/>
  </g>
</svg>
